#N canvas 357 51 1078 733 10;
#X declare -path libs/zexy;
#X declare -path libs/zexy;
#X obj 102 37 declare -path libs/zexy;
#X obj 100 129 Sampleplayer;
#X obj 100 339 Talkback;
#X obj 181 517 dac~;
#X obj 100 279 Effects \$0;
#X obj 710 326 catch~ \$0-REVERB-LEFT;
#X obj 747 354 catch~ \$0-REVERB-RIGHT;
#X obj 710 398 e_platereverb;
#X obj 710 456 dac~;
#X connect 1 0 4 0;
#X connect 1 1 4 1;
#X connect 2 0 3 0;
#X connect 2 1 3 1;
#X connect 4 0 2 0;
#X connect 4 1 2 1;
#X connect 5 0 7 0;
#X connect 6 0 7 1;
#X connect 7 0 8 0;
#X connect 7 1 8 1;
#X coords 0 -1 1 1 200 500 1 100 100;
