#N canvas 357 51 1078 733 10;
#X declare -path libs/rm;
#X floatatom 437 433 8 0 0 1 duration_in_samples - -;
#X floatatom 410 463 8 0 0 1 duration_in_ms - -;
#X symbolatom 383 611 12 0 0 1 table_name - -;
#X obj 383 260 unpack s f f f;
#X floatatom 464 293 6 0 0 1 samplerate - -;
#X obj 383 232 u_samplebank2 \$0-sample;
#X obj 383 111 openpanel;
#X symbolatom 103 209 20 0 0 2 Filename #0-setName -;
#X obj 383 139 trigger s s;
#X obj 446 180 s \$0-setName;
#X obj 127 158 bng 25 250 50 0 \$0-load empty LOAD 0 -10 0 10 -262144
-1 -1;
#X obj 383 82 r \$0-load;
#X symbolatom 228 209 10 0 0 2 Duration_(s) #0-setDuration -;
#X obj 437 505 / 1000;
#X obj 437 549 s \$0-setDuration;
#X obj 167 158 bng 25 250 50 0 \$0-play empty PLAY 0 -10 0 10 -262144
-1 -1;
#X obj 207 158 bng 25 250 50 0 \$0-stop empty STOP 0 -10 0 10 -262144
-1 -1;
#X obj 746 377 s_playtable2;
#X obj 845 192 r \$0-loop;
#X obj 746 102 r \$0-play;
#X obj 746 499 outlet~ left;
#X obj 780 479 outlet~ right;
#X obj 746 249 list prepend \$0-sample;
#X obj 410 482 t f f;
#X obj 820 159 r \$0-endpoint;
#X obj 795 129 r \$0-startpoint;
#X obj 410 580 s \$0-endpoint;
#X text 542 550 to duration display;
#X text 498 580 sets length for loop player;
#X obj 746 220 pack 1 1 0 1000 0;
#X obj 464 313 t f b;
#X obj 491 335 samplerate~;
#X obj 746 271 t a b;
#X obj 246 158 tgl 25 0 \$0-loop empty LOOP 0 -10 0 10 -262144 -1 -1
0 1;
#X obj 464 381 sel 1;
#X obj 765 315 r \$0-stop;
#X msg 765 337 stop;
#X obj 815 427 spigot;
#X obj 848 403 r \$0-loop;
#X msg 839 328 sr \$1;
#X msg 383 210 sr 44100 \, open \$1;
#X obj 567 292 s \$0-samplerate;
#X obj 890 282 r \$0-samplerate;
#X obj 839 305 int 44100;
#X obj 464 406 print WARNING! \$1 sample rate mismatch;
#X obj 464 357 !=;
#X obj 437 527 rm_float2symbol;
#X obj 102 17 declare -path libs/rm;
#X obj 446 160 rm_getfilename;
#X connect 1 0 23 0;
#X connect 3 0 2 0;
#X connect 3 1 1 0;
#X connect 3 2 0 0;
#X connect 3 3 4 0;
#X connect 3 3 41 0;
#X connect 4 0 30 0;
#X connect 5 0 3 0;
#X connect 6 0 8 0;
#X connect 8 0 40 0;
#X connect 8 1 48 0;
#X connect 11 0 6 0;
#X connect 13 0 46 0;
#X connect 17 0 20 0;
#X connect 17 1 21 0;
#X connect 17 2 37 0;
#X connect 18 0 29 4;
#X connect 19 0 29 0;
#X connect 22 0 32 0;
#X connect 23 0 26 0;
#X connect 23 1 13 0;
#X connect 24 0 29 3;
#X connect 25 0 29 2;
#X connect 29 0 22 0;
#X connect 30 0 45 0;
#X connect 30 1 31 0;
#X connect 31 0 45 1;
#X connect 32 0 17 0;
#X connect 32 1 43 0;
#X connect 34 0 44 0;
#X connect 35 0 36 0;
#X connect 36 0 17 1;
#X connect 37 0 17 0;
#X connect 38 0 37 1;
#X connect 39 0 17 1;
#X connect 40 0 5 0;
#X connect 42 0 43 1;
#X connect 43 0 39 0;
#X connect 45 0 34 0;
#X connect 46 0 14 0;
#X connect 48 0 9 0;
#X coords 0 -1 1 1 200 150 1 100 100;
