#N canvas 501 74 751 530 10;
#X obj 249 128 tgl 26 1 \$0-switch empty ON/OFF -4 -10 0 10 -262144
-1 -1 0 1;
#X obj 377 41 adc~ 1 2;
#X obj 377 161 *~;
#X obj 422 161 *~;
#X obj 437 76 r \$0-switch;
#X obj 437 118 lop~ 2;
#X obj 464 185 inlet~ left;
#X obj 509 208 inlet~ right;
#X obj 464 303 *~;
#X obj 509 303 *~;
#X obj 524 267 lop~ 2;
#X obj 595 155 swap 1;
#X obj 595 177 -;
#X obj 377 355 +~;
#X obj 422 355 +~;
#X obj 377 417 outlet~ left;
#X obj 422 397 outlet~ right;
#X obj 595 201 * 0.8;
#X obj 595 223 + 0.2;
#X connect 1 0 2 0;
#X connect 1 1 3 0;
#X connect 2 0 13 0;
#X connect 3 0 14 0;
#X connect 4 0 5 0;
#X connect 4 0 11 0;
#X connect 5 0 3 1;
#X connect 5 0 2 1;
#X connect 6 0 8 0;
#X connect 7 0 9 0;
#X connect 8 0 13 1;
#X connect 9 0 14 1;
#X connect 10 0 9 1;
#X connect 10 0 8 1;
#X connect 11 0 12 0;
#X connect 11 1 12 1;
#X connect 12 0 17 0;
#X connect 13 0 15 0;
#X connect 14 0 16 0;
#X connect 17 0 18 0;
#X connect 18 0 10 0;
#X coords 0 -1 1 1 200 60 1 100 100;
